<svg width="1385" height="100" viewBox="0 0 1385 100" fill="none" xmlns="http://www.w3.org/2000/svg">
<path d="M67.3722 0V9.62224H57.75V0H19.25V9.62224H9.62224V0H0V9.62224H9.62224V28.8778H19.25V38.511H28.8778V48.1333H19.25V57.761H28.8778V67.3722H19.261V77H28.8833V67.3833H38.5V57.761H48.1278V48.1333H57.75V28.8778H67.3722V9.62224H77V0H67.3722Z" fill="black"/>
<path d="M137.88 77H152.952L130.392 9.79999H110.232L87.48 77H102.84L107.16 63.56H133.56L137.88 77ZM111.288 50.504L119.736 24.2H120.792L129.336 50.504H111.288Z" fill="black"/>
<path d="M159.229 77H173.245V47.624C173.245 42.536 176.797 38.696 181.885 38.696C186.781 38.696 190.237 42.44 190.237 47.528V77H204.253V43.016C204.253 33.128 197.149 25.16 186.493 25.16C180.637 25.16 176.509 27.752 174.205 31.016H173.245V26.408H159.229V77Z" fill="black"/>
<path d="M236.134 77H247.174V64.424H237.478C235.174 64.424 234.31 63.464 234.31 61.256V38.792H247.75V26.408H234.31V12.584H221.254V26.408H211.942V38.792H220.294V61.352C220.294 72.392 225.958 77 236.134 77Z" fill="black"/>
<path d="M271.017 19.688C275.721 19.688 279.273 16.136 279.273 11.528C279.273 7.01599 275.721 3.46399 271.017 3.46399C266.217 3.46399 262.665 7.01599 262.665 11.528C262.665 16.136 266.217 19.688 271.017 19.688ZM263.817 77H277.737V26.408H255.465V38.792H263.817V77Z" fill="black"/>
<path d="M289.811 55.208H318.227V42.152H289.811V55.208Z" fill="black"/>
<path d="M352.427 78.248C368.171 78.248 377.771 69.032 377.771 57.512C377.771 29.768 343.211 40.904 343.211 28.328C343.211 25.16 345.707 21.8 351.851 21.8C357.995 21.8 361.643 25.736 361.643 31.016H376.043C376.043 14.504 363.179 8.55199 352.235 8.55199C337.643 8.55199 328.907 17.768 328.907 28.328C328.907 55.496 363.083 42.92 363.083 57.416C363.083 61.448 359.723 64.424 352.907 64.424C346.475 64.424 341.195 60.584 341.195 54.056H326.891C326.891 68.744 337.643 78.248 352.427 78.248Z" fill="black"/>
<path d="M408.166 77H419.206V64.424H409.51C407.206 64.424 406.342 63.464 406.342 61.256V38.792H419.782V26.408H406.342V12.584H393.286V26.408H383.974V38.792H392.326V61.352C392.326 72.392 397.99 77 408.166 77Z" fill="black"/>
<path d="M429.416 77H443.336V53.288C443.336 43.88 448.328 39.08 456.008 39.08H461.192V25.16H457.16C451.4 25.16 446.408 28.808 444.2 33.128H443.24V26.408H429.416V77Z" fill="black"/>
<path d="M491.755 78.248C501.547 78.248 511.339 74.024 514.987 62.696L502.507 59.816C500.587 64.04 496.171 65.864 491.563 65.864C484.939 65.864 480.043 61.832 479.947 55.208H516.619V51.656C516.619 36.68 506.923 25.16 491.371 25.16C477.259 25.16 465.547 35.912 465.547 51.752C465.547 67.016 476.299 78.248 491.755 78.248ZM480.043 45.896C480.715 41.384 484.843 36.776 491.371 36.776C497.323 36.776 501.835 40.808 502.507 45.896H480.043Z" fill="black"/>
<path d="M544.513 78.248C557.665 78.248 565.633 71.24 565.633 61.064C565.633 41.672 538.849 48.2 538.849 40.328C538.849 38.12 541.153 36.68 544.513 36.68C548.257 36.68 551.329 38.792 552.385 42.344L564.481 39.08C562.273 29.96 554.881 25.16 544.321 25.16C533.089 25.16 525.025 32.168 525.025 40.904C525.025 61.064 551.521 54.056 551.521 62.408C551.521 64.808 549.409 66.44 545.185 66.44C540.385 66.44 536.161 64.328 535.585 59.624L523.297 61.832C524.737 73.064 533.761 78.248 544.513 78.248Z" fill="black"/>
<path d="M593.545 78.248C606.697 78.248 614.665 71.24 614.665 61.064C614.665 41.672 587.881 48.2 587.881 40.328C587.881 38.12 590.185 36.68 593.545 36.68C597.289 36.68 600.361 38.792 601.417 42.344L613.513 39.08C611.305 29.96 603.913 25.16 593.353 25.16C582.121 25.16 574.057 32.168 574.057 40.904C574.057 61.064 600.553 54.056 600.553 62.408C600.553 64.808 598.441 66.44 594.217 66.44C589.417 66.44 585.193 64.328 584.617 59.624L572.329 61.832C573.769 73.064 582.793 78.248 593.545 78.248Z" fill="black"/>
<path d="M662.352 77H676.56V23.24H694.512V9.79999H644.4V23.24H662.352V77Z" fill="black"/>
<path d="M702.602 99.08H710.953C719.977 99.08 725.257 96.008 727.849 88.808L750.026 26.408H734.666L724.393 63.56H723.338L713.065 26.408H697.898L714.794 77H717.482L715.273 82.76C714.217 85.448 712.682 86.312 709.994 86.312H702.602V99.08Z" fill="black"/>
<path d="M756.791 99.08H770.807V71.816H771.863C773.975 74.888 778.487 78.248 786.263 78.248C799.319 78.248 809.111 66.536 809.111 51.752C809.111 36.584 798.551 25.16 785.495 25.16C778.487 25.16 774.359 27.944 771.863 31.112H770.807V26.408H756.791V99.08ZM782.807 65C776.183 65 770.615 60.104 770.615 51.656C770.615 44.552 775.415 38.504 782.711 38.504C789.431 38.504 794.903 43.784 794.903 51.656C794.903 59.624 789.623 65 782.807 65Z" fill="black"/>
<path d="M842.005 78.248C851.797 78.248 861.589 74.024 865.237 62.696L852.758 59.816C850.838 64.04 846.421 65.864 841.813 65.864C835.189 65.864 830.294 61.832 830.198 55.208H866.87V51.656C866.87 36.68 857.174 25.16 841.622 25.16C827.51 25.16 815.797 35.912 815.797 51.752C815.797 67.016 826.549 78.248 842.005 78.248ZM830.294 45.896C830.966 41.384 835.094 36.776 841.622 36.776C847.574 36.776 852.086 40.808 852.758 45.896H830.294Z" fill="black"/>
<path d="M932.875 78.344C948.235 78.344 966.476 68.36 966.956 42.152H933.356V54.248H951.115C947.755 61.544 941.131 64.712 932.971 64.712C920.875 64.712 912.812 55.496 912.812 43.4C912.812 31.4 920.779 22.376 932.875 22.376C940.555 22.376 947.467 26.408 950.443 33.512H965.708C961.196 17.48 948.235 8.55199 932.875 8.55199C912.331 8.55199 898.028 23.72 898.028 43.4C898.028 63.176 912.331 78.248 932.875 78.344Z" fill="black"/>
<path d="M1000.35 78.248C1010.14 78.248 1019.93 74.024 1023.58 62.696L1011.1 59.816C1009.18 64.04 1004.77 65.864 1000.16 65.864C993.533 65.864 988.637 61.832 988.541 55.208H1025.21V51.656C1025.21 36.68 1015.52 25.16 999.965 25.16C985.853 25.16 974.141 35.912 974.141 51.752C974.141 67.016 984.893 78.248 1000.35 78.248ZM988.637 45.896C989.309 41.384 993.437 36.776 999.965 36.776C1005.92 36.776 1010.43 40.808 1011.1 45.896H988.637Z" fill="black"/>
<path d="M1034.29 77H1048.31V47.624C1048.31 42.536 1051.86 38.696 1056.95 38.696C1061.84 38.696 1065.3 42.44 1065.3 47.528V77H1079.32V43.016C1079.32 33.128 1072.21 25.16 1061.56 25.16C1055.7 25.16 1051.57 27.752 1049.27 31.016H1048.31V26.408H1034.29V77Z" fill="black"/>
<path d="M1113.69 78.248C1123.48 78.248 1133.28 74.024 1136.93 62.696L1124.44 59.816C1122.52 64.04 1118.11 65.864 1113.5 65.864C1106.88 65.864 1101.98 61.832 1101.89 55.208H1138.56V51.656C1138.56 36.68 1128.86 25.16 1113.31 25.16C1099.2 25.16 1087.48 35.912 1087.48 51.752C1087.48 67.016 1098.24 78.248 1113.69 78.248ZM1101.98 45.896C1102.65 41.384 1106.78 36.776 1113.31 36.776C1119.26 36.776 1123.77 40.808 1124.44 45.896H1101.98Z" fill="black"/>
<path d="M1147.64 77H1161.56V53.288C1161.56 43.88 1166.55 39.08 1174.23 39.08H1179.41V25.16H1175.38C1169.62 25.16 1164.63 28.808 1162.42 33.128H1161.46V26.408H1147.64V77Z" fill="black"/>
<path d="M1207.09 78.248C1214.39 78.248 1218.42 75.464 1221.11 71.624H1222.17C1222.17 74.504 1224.47 77 1227.73 77H1240.41V65.288H1238.39C1237.05 65.288 1236.09 64.52 1236.09 63.176V26.408H1222.07V31.112H1221.01C1218.04 27.656 1213.43 25.16 1207 25.16C1194.04 25.16 1183.77 36.392 1183.77 51.656C1183.77 66.824 1194.13 78.248 1207.09 78.248ZM1210.17 64.808C1203.45 64.808 1197.97 59.72 1197.97 51.752C1197.97 43.784 1203.35 38.696 1210.07 38.696C1216.69 38.696 1222.26 43.4 1222.26 51.752C1222.26 58.856 1217.46 64.808 1210.17 64.808Z" fill="black"/>
<path d="M1271.32 77H1282.36V64.424H1272.67C1270.36 64.424 1269.5 63.464 1269.5 61.256V38.792H1282.94V26.408H1269.5V12.584H1256.44V26.408H1247.13V38.792H1255.48V61.352C1255.48 72.392 1261.15 77 1271.32 77Z" fill="black"/>
<path d="M1317.15 78.248C1332.89 78.248 1344.03 66.728 1344.03 51.752C1344.03 36.776 1332.99 25.16 1317.15 25.16C1301.4 25.16 1290.17 36.68 1290.17 51.752C1290.17 66.728 1301.31 78.248 1317.15 78.248ZM1317.15 64.904C1309.66 64.904 1304.38 59.24 1304.38 51.752C1304.38 44.168 1309.66 38.504 1317.15 38.504C1324.64 38.504 1329.82 44.168 1329.82 51.752C1329.82 59.24 1324.64 64.904 1317.15 64.904Z" fill="black"/>
<path d="M1353.14 77H1367.06V53.288C1367.06 43.88 1372.05 39.08 1379.73 39.08H1384.91V25.16H1380.88C1375.12 25.16 1370.13 28.808 1367.92 33.128H1366.96V26.408H1353.14V77Z" fill="black"/>
</svg>
