<svg width="422" height="127" viewBox="0 0 422 127" fill="none" xmlns="http://www.w3.org/2000/svg">
<path d="M87.3722 20V29.6222H77.75V20H39.25V29.6222H29.6222V20H20V29.6222H29.6222V48.8778H39.25V58.511H48.8778V68.1333H39.25V77.761H48.8778V87.3722H39.261V97H48.8833V87.3833H58.5V77.761H68.1278V68.1333H77.75V48.8778H87.3722V29.6222H97V20H87.3722Z" fill="black"/>
<path d="M157.88 97H172.952L150.392 29.8H130.232L107.48 97H122.84L127.16 83.56H153.56L157.88 97ZM131.288 70.504L139.736 44.2H140.792L149.336 70.504H131.288Z" fill="black"/>
<path d="M178.749 75.208H207.165V62.152H178.749V75.208Z" fill="black"/>
<path d="M241.365 98.248C257.109 98.248 266.709 89.032 266.709 77.512C266.709 49.768 232.149 60.904 232.149 48.328C232.149 45.16 234.645 41.8 240.789 41.8C246.933 41.8 250.581 45.736 250.581 51.016H264.981C264.981 34.504 252.117 28.552 241.173 28.552C226.581 28.552 217.845 37.768 217.845 48.328C217.845 75.496 252.021 62.92 252.021 77.416C252.021 81.448 248.661 84.424 241.845 84.424C235.413 84.424 230.133 80.584 230.133 74.056H215.829C215.829 88.744 226.581 98.248 241.365 98.248Z" fill="black"/>
<path d="M290.383 97H304.591V43.24H322.543V29.8H272.431V43.24H290.383V97Z" fill="black"/>
<path d="M363.657 98.344C379.017 98.344 397.257 88.36 397.737 62.152H364.137V74.248H381.897C378.537 81.544 371.913 84.712 363.753 84.712C351.657 84.712 343.593 75.496 343.593 63.4C343.593 51.4 351.561 42.376 363.657 42.376C371.337 42.376 378.249 46.408 381.225 53.512H396.489C391.977 37.48 379.017 28.552 363.657 28.552C343.113 28.552 328.809 43.72 328.809 63.4C328.809 83.176 343.113 98.248 363.657 98.344Z" fill="black"/>
</svg>
