<svg width="606" height="349" viewBox="0 0 606 349" fill="none" xmlns="http://www.w3.org/2000/svg">
<g clip-path="url(#clip0_901_6245)">
<path fill-rule="evenodd" clip-rule="evenodd" d="M70.5701 0.8C66.5866 0.8 62.7662 2.38246 59.9494 5.19926C57.1326 8.01606 55.5501 11.8364 55.5501 15.82V332.58L55.5501 332.581C55.548 333.171 55.5805 333.759 55.6475 334.345L54.8527 334.435C54.7822 333.819 54.7479 333.199 54.7501 332.579V15.82C54.7501 11.6243 56.4168 7.6004 59.3837 4.63358C62.3505 1.66675 66.3744 0 70.5701 0H535.04C539.236 0 543.26 1.66675 546.227 4.63358C549.193 7.6004 550.86 11.6243 550.86 15.82V332.58C550.859 333.217 550.821 333.854 550.747 334.486L549.953 334.394C550.023 333.791 550.059 333.186 550.06 332.579V15.82C550.06 11.8364 548.478 8.01606 545.661 5.19926C542.844 2.38246 539.024 0.8 535.04 0.8H70.5701Z" fill="black"/>
<path fill-rule="evenodd" clip-rule="evenodd" d="M70.32 2.78047C66.9359 2.78047 63.6903 4.12482 61.2973 6.51779C58.9044 8.91075 57.56 12.1563 57.56 15.5405V332.871C57.5595 333.37 57.5886 333.868 57.6472 334.363L56.8528 334.457C56.7905 333.931 56.7595 333.401 56.76 332.87V15.5405C56.76 11.9441 58.1887 8.4951 60.7317 5.9521C63.2746 3.40911 66.7237 1.98047 70.32 1.98047H535.32C538.916 1.98047 542.365 3.40911 544.908 5.9521C547.451 8.4951 548.88 11.9441 548.88 15.5405V332.87C548.88 333.407 548.849 333.943 548.787 334.476L547.993 334.385C548.051 333.882 548.08 333.376 548.08 332.87V15.5405C548.08 12.1563 546.736 8.91075 544.343 6.51779C541.95 4.12482 538.704 2.78047 535.32 2.78047H70.32Z" fill="black"/>
<path fill-rule="evenodd" clip-rule="evenodd" d="M303.27 8.75996C301.453 8.75996 299.98 10.2329 299.98 12.05C299.98 13.867 301.453 15.34 303.27 15.34C305.087 15.34 306.56 13.867 306.56 12.05C306.56 10.2329 305.087 8.75996 303.27 8.75996ZM299.18 12.05C299.18 9.79112 301.011 7.95996 303.27 7.95996C305.529 7.95996 307.36 9.79112 307.36 12.05C307.36 14.3088 305.529 16.14 303.27 16.14C301.011 16.14 299.18 14.3088 299.18 12.05Z" fill="black"/>
<path fill-rule="evenodd" clip-rule="evenodd" d="M303.27 10.1096C302.199 10.1096 301.33 10.9781 301.33 12.0496C301.33 13.121 302.199 13.9896 303.27 13.9896C304.341 13.9896 305.21 13.121 305.21 12.0496C305.21 10.9781 304.341 10.1096 303.27 10.1096ZM300.53 12.0496C300.53 10.5363 301.757 9.30957 303.27 9.30957C304.783 9.30957 306.01 10.5363 306.01 12.0496C306.01 13.5628 304.783 14.7896 303.27 14.7896C301.757 14.7896 300.53 13.5628 300.53 12.0496Z" fill="black"/>
<path fill-rule="evenodd" clip-rule="evenodd" d="M67.6201 21.9404H537.99V315.62H67.6201V21.9404ZM68.0201 22.3404V315.22H537.59V22.3404H68.0201Z" fill="black"/>
<path fill-rule="evenodd" clip-rule="evenodd" d="M548.47 323.18H57.1599V322.38H548.47V323.18Z" fill="black"/>
<path fill-rule="evenodd" clip-rule="evenodd" d="M605.21 338.36H354.63V337.56H605.21V338.36Z" fill="black"/>
<path fill-rule="evenodd" clip-rule="evenodd" d="M250.68 338.36H0.399902V337.56H250.68V338.36Z" fill="black"/>
<path fill-rule="evenodd" clip-rule="evenodd" d="M0 334.03H605.61V338.209L605.387 338.319L605.21 337.96C605.387 338.319 605.387 338.319 605.387 338.319L605.382 338.322L605.369 338.328L605.321 338.351C605.279 338.371 605.217 338.4 605.134 338.438C604.969 338.513 604.721 338.623 604.391 338.763C603.729 339.042 602.733 339.439 601.391 339.915C598.706 340.868 594.633 342.134 589.066 343.4C577.933 345.932 560.828 348.46 536.91 348.46H68.7C44.7816 348.46 27.6768 345.932 16.5438 343.4C10.9774 342.134 6.90424 340.868 4.21913 339.915C2.87659 339.439 1.88111 339.042 1.21952 338.763C0.888722 338.623 0.641408 338.513 0.475928 338.438C0.393189 338.4 0.330908 338.371 0.288881 338.351L0.241006 338.328L0.228413 338.322L0.224944 338.32L0.223915 338.319C0.223597 338.319 0.223357 338.319 0.4 337.96L0.223915 338.319L0 338.209V334.03ZM0.8 337.706C0.802741 337.707 0.805508 337.709 0.8083 337.71C0.966736 337.782 1.20694 337.889 1.53056 338.026C2.1778 338.299 3.15872 338.691 4.48649 339.161C7.14201 340.103 11.1851 341.361 16.7212 342.62C27.7932 345.138 44.8384 347.66 68.7 347.66H536.91C560.772 347.66 577.817 345.138 588.889 342.62C594.425 341.361 598.468 340.103 601.124 339.161C602.451 338.691 603.432 338.299 604.079 338.026C604.403 337.889 604.643 337.782 604.802 337.71C604.805 337.709 604.807 337.707 604.81 337.706V334.83H0.8V337.706Z" fill="black"/>
<path fill-rule="evenodd" clip-rule="evenodd" d="M250.68 337.96L250.342 338.174L250.28 338.076V334.43H251.08V337.804C251.126 337.845 251.197 337.902 251.302 337.971C251.577 338.152 252.082 338.414 252.962 338.682C254.724 339.219 257.96 339.77 263.8 339.77H341.51C347.35 339.77 350.586 339.219 352.349 338.682C353.228 338.414 353.733 338.152 354.008 337.971C354.113 337.902 354.184 337.845 354.23 337.804V334.43H355.03V338.076L354.968 338.174L354.63 337.96C354.968 338.174 354.968 338.174 354.967 338.175L354.966 338.176L354.964 338.179L354.96 338.185L354.95 338.2C354.943 338.21 354.934 338.222 354.922 338.236C354.9 338.264 354.869 338.299 354.828 338.339C354.747 338.42 354.625 338.522 354.448 338.639C354.095 338.872 353.517 339.163 352.581 339.447C350.714 340.016 347.39 340.57 341.51 340.57H263.8C257.92 340.57 254.596 340.016 252.729 339.447C251.793 339.163 251.215 338.872 250.862 338.639C250.685 338.522 250.563 338.42 250.482 338.339C250.441 338.299 250.411 338.264 250.388 338.236C250.376 338.222 250.367 338.21 250.36 338.2L250.35 338.185L250.346 338.179L250.344 338.176L250.343 338.175C250.343 338.174 250.342 338.174 250.68 337.96Z" fill="black"/>
</g>
<defs>
<clipPath id="clip0_901_6245">
<rect width="605.61" height="348.45" fill="white"/>
</clipPath>
</defs>
</svg>
